<?xml version="1.0" encoding="utf-8"?>
<!-- Generator: Adobe Illustrator 28.3.0, SVG Export Plug-In . SVG Version: 6.00 Build 0)  -->
<svg version="1.1" id="a" xmlns="http://www.w3.org/2000/svg" xmlns:xlink="http://www.w3.org/1999/xlink" x="0px" y="0px"
	 viewBox="0 0 2749.3 2749.3" style="enable-background:new 0 0 2749.3 2749.3;" xml:space="preserve">
<style type="text/css">
	.st0{fill:url(#SVGID_1_);}
	.st1{fill:none;}
</style>
<linearGradient id="SVGID_1_" gradientUnits="userSpaceOnUse" x1="2676.166" y1="1135.0238" x2="489.8655" y2="-698.756" gradientTransform="matrix(1 0 0 1 0 1204)">
	<stop  offset="0" style="stop-color:#3DD976"/>
	<stop  offset="0.9" style="stop-color:#B8D660"/>
</linearGradient>
<path class="st0" d="M400.4,1446c-5.1-78.7-18.6-350.2,163.7-613.6C737,582.7,978.5,495.3,1056.7,470.6
	c244.5-78.9,466.8-43.7,543.8,71.7c43.3,64.9,48,146.3,48,146.3c7.3,167.4-101.9,291.2-283.9,305.7
	c-211.1,14.6-364,152.9-378.5,342.1c-14.6,189.3,109.2,356.7,298.5,400.4c182,43.7,371.3-65.5,436.8-254.8
	c36.4-101.9,87.3-174.7,189.3-211.1c60.9-21.8,121.9-25.3,178.2-7.5c52.6,16.6,85.6,47,105.7,65.8c0,0,50,46.6,78.9,112.3
	c49.9,113.4-21.5,318.6-129.8,473.7c-220.2,315.5-570.4,392.4-601.3,398.7c-81.6,16.6-374.4,65.2-672.7-108.4
	c-41.8-24.3-302-180.9-417-503.1C439.2,1665,408.5,1571.4,400.4,1446z M2223.6,1198.2L2223.6,1198.2 M1728.6,513.9L1728.6,513.9
	 M2051.4,688.7c-59.1,11.8-167.8,33.6-244.9,120.4c-44.2,49.7-62.2,103.1-129,170.8c-44.9,45.4-87.8,73.1-121.7,90.7
	c-5.5,2.9-9.9,5-12.8,6.4c-40.7,19.7-90.6,34.9-156.7,41.2c-152.9,14.6-254.8,101.9-269.3,232.9c-14.6,131,72.8,240.2,203.8,269.3
	c123.8,29.1,247.5-43.7,291.2-174.7c51-145.6,138.3-240.2,262.1-291.2c49.1-16.3,98.2-24.5,147.4-24.5c25.5,0,44.5,2.2,49.2,2.7
	c34.4,4.1,89.4,15.3,152.8,51c189.3,94.6,225.7,240.2,320.3,232.9c89.8-6.9,191.3-132.7,196.6-254.8
	C2751.4,906.7,2346.5,629.6,2051.4,688.7z M1575.7,1431.1c-21.8,65.5-72.8,116.5-145.6,138.3c-72.8,21.8-160.2,7.3-218.4-51
	c-21.8-21.8-43.7-51-51-80.1c-2.4-6.7-4.9-15.3-6.4-25.5c-1.4-9.9-1.4-18.5-0.9-25.5c2.3-4.3,5.7-9.4,9.9-9.4
	c6.7,0.1,9.8,13.3,15.9,25c17.6,33.6,56.5,47.1,69.8,51.6c15.6,5.3,29.2,7.5,35.5,7.6c12.1,0.2,24.2,0.5,36.3,0.7
	c11.1-0.2,23.3-1,36.4-2.7c19.3-2.5,90.6-18.7,101.9-21.8c2.1-0.6,13.7-3.9,25.5-7.3c12.5-3.5,18-5.1,20.9-6
	c3.2-0.9,3.9-1.1,4.6-1.3c15.6-4.5,32.5-9.2,51-7.3c7.5,0.8,11.9,2.3,13.9,5.7C1576.1,1424,1577.1,1426.8,1575.7,1431.1z
	 M2580.3,1365.6c-14.6,7.3-29.1,14.6-58.2,14.6c-14.6,0-29.1-7.3-36.4-14.6c-36.4-21.8-65.5-58.2-58.2-65.5h14.6
	c21.8,0,36.4,14.6,43.7,14.6l0,0c21.8,14.6,51,14.6,51,14.6c51-7.3,87.4-29.1,94.6-21.8C2645.8,1307.3,2616.7,1343.7,2580.3,1365.6
	L2580.3,1365.6z M2689.5,1241.8c-7.3,14.6-29.1,29.1-36.4,21.8c-14.6-7.3-7.3-72.8,14.6-80.1c7.3,0,21.8,7.3,21.8,14.6
	C2704,1220,2696.8,1241.8,2689.5,1241.8L2689.5,1241.8z"/>
<rect class="st1" width="2749.3" height="2749.3"/>
</svg>
