<?xml version="1.0" encoding="UTF-8"?><svg id="a" xmlns="http://www.w3.org/2000/svg" width="2749.33" height="2749.33" xmlns:xlink="http://www.w3.org/1999/xlink" viewBox="0 0 2749.33 2749.33"><defs><linearGradient id="b" x1="2679.04" y1="2798.61" x2="511.91" y2="980.91" gradientTransform="translate(0 -466)" gradientUnits="userSpaceOnUse"><stop offset="0" stop-color="#3dd976"/><stop offset=".9" stop-color="#b8d660"/></linearGradient></defs><path d="M410.98,1445.66c0-582.37,414.94-1011.86,924.51-1026.42,174.71-7.28,305.74,109.19,313.02,269.34,7.28,167.43-101.91,291.18-283.9,305.74-211.11,14.56-363.98,152.87-378.54,342.14-14.56,189.27,109.19,356.7,298.46,400.38,181.99,43.68,371.26-65.52,436.77-254.79,36.4-101.91,87.35-174.71,189.27-211.11,101.91-36.4,203.83-21.84,283.9,58.24,87.35,80.08,116.47,174.71,87.35,291.18-145.59,604.2-866.27,902.67-1404.96,575.09-305.74-181.99-458.61-458.61-465.89-749.8ZM2223.59,1198.15h0M1728.58,513.87h0M2063.44,688.58c-58.24,14.56-116.47,36.4-160.15,58.24-72.8,43.68-203.83,203.83-225.67,232.95-72.8,80.08-174.71,123.75-291.18,138.31-152.87,14.56-254.79,101.91-269.34,232.95-14.56,131.03,72.8,240.23,203.83,269.34,123.75,29.12,247.51-43.68,291.18-174.71,50.96-145.59,138.31-240.23,262.06-291.18,65.52-21.84,131.03-29.12,196.55-21.84h0c43.68,7.28,94.63,21.84,131.03,43.68,7.28,0,14.56,7.28,21.84,7.28,189.27,94.63,225.67,240.23,320.3,232.95,101.91-7.28,196.55-138.31,196.55-254.79,14.56-232.95-349.42-531.41-677-473.17ZM1575.71,1431.1c-21.84,65.52-72.8,116.47-145.59,138.31-72.8,21.84-160.15,7.28-218.39-50.96-21.84-21.84-43.68-50.96-50.96-80.08-7.28-14.56-7.28-36.4-7.28-50.96,0-7.28,14.56-14.56,14.56-7.28s7.28,14.56,14.56,21.84c29.12,36.4,58.24,58.24,101.91,58.24,21.84,7.28,50.96,0,72.8,0,36.4-7.28,65.52-14.56,101.91-21.84,14.56-7.28,36.4-7.28,50.96-14.56,14.56,0,36.4-7.28,50.96-7.28,7.28,0,14.56,7.28,14.56,14.56ZM2580.29,1365.58c-14.56,7.28-29.12,14.56-58.24,14.56-14.56,0-29.12-7.28-36.4-14.56-36.4-21.84-65.52-58.24-58.24-65.52h14.56c21.84,0,36.4,14.56,43.68,14.56h0c21.84,14.56,50.96,14.56,50.96,14.56,50.96-7.28,87.35-29.12,94.63-21.84,14.56,0-14.56,36.4-50.96,58.24ZM2689.48,1241.83c-7.28,14.56-29.12,29.12-36.4,21.84-14.56-7.28-7.28-72.8,14.56-80.08,7.28,0,21.84,7.28,21.84,14.56,14.56,21.84,7.28,43.68,0,43.68Z" style="fill:url(#b); stroke-width:0px;"/><rect width="2749.33" height="2749.33" style="fill:none; stroke-width:0px;"/></svg>