<?xml version="1.0" encoding="UTF-8"?><svg id="a" xmlns="http://www.w3.org/2000/svg" width="16.2" height="18" viewBox="0 0 16.2 18"><path d="M6.3,14.4c-.5,0-.9-.4-.9-.9v-4.5c0-.5.4-.9.9-.9s.9.4.9.9v4.5c0,.5-.4.9-.9.9ZM10.8,13.5v-4.5c0-.5-.4-.9-.9-.9s-.9.4-.9.9v4.5c0,.5.4.9.9.9s.9-.4.9-.9ZM14.4,14.4v-7.2c0-.5-.4-.9-.9-.9s-.9.4-.9.9v7.2c0,.99-.81,1.8-1.8,1.8h-5.4c-.99,0-1.8-.81-1.8-1.8v-7.2c0-.5-.4-.9-.9-.9s-.9.4-.9.9v7.2c0,1.99,1.61,3.6,3.6,3.6h5.4c1.99,0,3.6-1.61,3.6-3.6ZM16.2,4.5c0,.5-.4.9-.9.9H.9c-.5,0-.9-.4-.9-.9s.4-.9.9-.9h3.6v-.9c0-1.49,1.21-2.7,2.7-2.7h1.8c1.49,0,2.7,1.21,2.7,2.7v.9h3.6c.5,0,.9.4.9.9ZM9.9,3.6v-.9c0-.5-.4-.9-.9-.9h-1.8c-.5,0-.9.4-.9.9v.9h3.6Z" style="fill:#000; stroke-width:0px;"/></svg>