<?xml version="1.0" encoding="utf-8"?>
<!-- Generator: Adobe Illustrator 28.3.0, SVG Export Plug-In . SVG Version: 6.00 Build 0)  -->
<svg version="1.1" id="a" xmlns="http://www.w3.org/2000/svg" xmlns:xlink="http://www.w3.org/1999/xlink" x="0px" y="0px"
	 viewBox="0 0 18 18" style="enable-background:new 0 0 18 18;" xml:space="preserve">
<path d="M0,3.8c0-0.1,0.1-0.1,0.1-0.1c0.3-1.1,1.2-1.8,2.4-1.8h5.6C8.6,1.8,9,2.1,9,2.5C9,2.9,8.8,3.3,8.4,3.4H2.5
	c-0.6,0-0.9,0.3-0.9,0.9v11.2c0,0.2,0.1,0.4,0.1,0.6c0.1,0.2,0.4,0.3,0.6,0.3h11.4c0.4,0,0.8-0.4,0.8-0.8V9.8c0-0.4,0.3-0.7,0.7-0.8
	c0.4-0.1,0.8,0.1,0.9,0.6c0,0.1,0.1,0.2,0.1,0.3v5.5c0,1.1-0.7,2-1.7,2.4c-0.1,0.1-0.2,0.1-0.4,0.1H2.4c-0.7,0-1.1-0.3-1.6-0.7
	c-0.3-0.3-0.5-0.7-0.7-1.1c0-0.1-0.1-0.1-0.1-0.1C0,11.9,0,7.8,0,3.8z M14.9,0.1c-0.6,0.1-1,0.4-1.4,0.8c-2.5,2.5-5,5-7.5,7.5
	C5.9,8.6,5.8,8.8,5.7,9c-0.2,1-0.5,2-0.7,3c-0.2,0.7,0.3,1.3,1,1c1-0.2,2-0.5,3-0.7c0.2-0.1,0.4-0.1,0.6-0.3c1.3-1.3,2.7-2.7,4-4
	c1.2-1.2,2.4-2.4,3.6-3.6c0.4-0.4,0.7-1,0.7-1.7c0-0.3,0-0.6-0.1-0.9c-0.1-0.5-0.4-0.8-0.5-0.9c-0.2-0.2-0.6-0.7-1.3-0.8
	C15.6-0.1,14.9,0.1,14.9,0.1L14.9,0.1z M7.1,10.3c0.1-0.5,0.4-1,0.7-1.3c2.3-2.3,4.6-4.6,7-7c0.4-0.4,1-0.4,1.3,0
	c0.4,0.3,0.4,0.9,0,1.3c-2.5,2.5-4.9,4.9-7.4,7.4c-0.1,0.1-0.1,0.1-0.3,0.1C7.9,11,7.5,11,6.9,11.2H6.8C6.9,10.9,7.1,10.6,7.1,10.3z
	"/>
</svg>
