<?xml version="1.0" encoding="UTF-8"?><svg id="a" xmlns="http://www.w3.org/2000/svg" width="24" height="23.84" viewBox="0 0 24 23.84"><path d="M0,12.94C0,12.31.04,10.98.04,10.94c.14-1.62.58-3.16,1.36-4.58C3.27,2.98,6.1.91,9.89.18c.4-.08.81-.12,1.21-.18h1.78c.03.05.08.04.13.04,2.92.26,5.45,1.4,7.49,3.5,2.87,2.95,3.98,6.5,3.3,10.56-.82,4.94-4.77,8.86-9.72,9.72-.18.03-.22,0-.22-.18,0-2.66,0-5.31,0-7.97,0-.18.05-.22.22-.22.8,0,1.59,0,2.39,0,.14,0,.2-.02.22-.18.15-1.03.31-2.05.48-3.07.03-.19-.01-.22-.19-.22-.98,0-1.95,0-2.93,0-.13,0-.19-.02-.19-.17.01-.73,0-1.47.01-2.2.02-.97.59-1.59,1.55-1.72.57-.07,1.14-.03,1.71-.03.14,0,.21-.01.21-.18,0-.87,0-1.73,0-2.6,0-.13-.03-.18-.16-.19-1.11-.16-2.23-.3-3.36-.16-1.02.13-1.92.52-2.62,1.31-.77.88-1.06,1.93-1.08,3.07-.02.89,0,1.78,0,2.67,0,.17-.04.22-.22.22-.87,0-1.75,0-2.62,0-.16,0-.21.03-.21.2,0,1.02,0,2.05,0,3.07,0,.17.05.21.21.2.88,0,1.76,0,2.65,0,.15,0,.2.03.2.19,0,2.67,0,5.34,0,8.01,0,.16-.03.19-.19.16-2.63-.47-4.87-1.68-6.69-3.62-1.62-1.72-2.64-3.75-3.05-6.08-.07-.4-.12-.79-.18-1.19h0Z" style="fill:#fff; stroke-width:0px;"/></svg>