<?xml version="1.0" encoding="UTF-8"?><svg id="a" xmlns="http://www.w3.org/2000/svg" width="24" height="23.98" viewBox="0 0 24 23.98"><path d="M24,12v6.73c-.01,2.53-1.88,4.73-4.37,5.16-.29.05-.58.08-.87.08-4.51,0-9.02.01-13.53,0-2.52,0-4.71-1.89-5.14-4.37-.05-.29-.08-.59-.08-.89-.01-4.49-.01-8.98-.01-13.48C0,2.71,1.89.51,4.37.08c.29-.05.59-.08.88-.08C9.76,0,14.27,0,18.78,0c2.5,0,4.72,1.91,5.13,4.37.06.34.09.68.09,1.02v6.61h0ZM21.03,11.98h.02c0-.72.01-1.43,0-2.15-.02-.74-.04-1.48-.09-2.21-.05-.72-.24-1.42-.58-2.06-.76-1.43-1.98-2.21-3.55-2.49-.71-.13-1.43-.14-2.14-.15-1.52,0-3.04,0-4.56,0-.89,0-1.78,0-2.66.12-.74.09-1.44.29-2.08.68-1.31.78-2.03,1.96-2.29,3.44-.12.68-.15,1.36-.15,2.04,0,2.05,0,4.1.02,6.15,0,.64.06,1.27.22,1.9.33,1.32,1.05,2.35,2.23,3.04.84.49,1.77.68,2.73.72.79.03,1.58.05,2.37.05,1.59,0,3.18,0,4.77-.02.63,0,1.26-.05,1.88-.2,1.81-.44,3.02-1.53,3.58-3.31.23-.72.29-1.47.29-2.22.01-1.1,0-2.2,0-3.3v-.02ZM19.45,11.98c-.01,1.03-.02,2.07-.04,3.1-.01.6-.03,1.2-.18,1.78-.35,1.35-1.23,2.15-2.59,2.39-.48.09-.98.12-1.48.13-1.41.02-2.81.03-4.22.03-.86,0-1.73-.02-2.59-.05-.57-.02-1.13-.09-1.66-.29-1.02-.39-1.64-1.12-1.92-2.17-.16-.58-.19-1.18-.2-1.78-.02-1.88-.03-3.77-.02-5.65,0-.63.04-1.27.11-1.9.1-.92.48-1.72,1.24-2.3.47-.35,1-.53,1.57-.62.82-.13,1.65-.13,2.47-.13,1.47,0,2.93-.01,4.4,0,.67,0,1.35.04,2.02.11.92.1,1.72.47,2.3,1.22.36.47.55,1,.64,1.57.13.84.12,1.68.13,2.53v2h.01v.03ZM16.64,11.98c0-2.57-2.08-4.65-4.65-4.65s-4.66,2.08-4.66,4.65,2.08,4.66,4.66,4.66,4.65-2.08,4.65-4.66ZM16.82,6.06c-.6,0-1.08.49-1.08,1.09s.49,1.08,1.09,1.09c.6,0,1.09-.49,1.09-1.1s-.49-1.08-1.09-1.08h-.01ZM8.95,11.97c0-1.66,1.36-3.03,3.02-3.03s3.05,1.35,3.05,3.01-1.35,3.05-3.02,3.06c-1.68,0-3.04-1.35-3.04-3.04h-.01Z" style="stroke-width:0px;"/></svg>