<?xml version="1.0" encoding="utf-8"?>
<!-- Generator: Adobe Illustrator 28.3.0, SVG Export Plug-In . SVG Version: 6.00 Build 0)  -->
<svg version="1.1" id="b" xmlns="http://www.w3.org/2000/svg" xmlns:xlink="http://www.w3.org/1999/xlink" x="0px" y="0px"
	 viewBox="0 0 32 32" style="enable-background:new 0 0 32 32;" xml:space="preserve">
<style type="text/css">
	.st0{fill:url(#SVGID_1_);}
</style>
<linearGradient id="SVGID_1_" gradientUnits="userSpaceOnUse" x1="31.1245" y1="29.0925" x2="1.2604" y2="4.0436">
	<stop  offset="0" style="stop-color:#3DD976"/>
	<stop  offset="0.9" style="stop-color:#B8D660"/>
</linearGradient>
<path class="st0" d="M0,16.9C0,15.8-0.2,12.1,2.3,8.5C4.6,5.1,7.9,3.9,9,3.6c3.3-1.1,6.4-0.6,7.4,1c0.6,0.9,0.7,2,0.7,2
	c0.1,2.3-1.4,4-3.9,4.2c-2.9,0.2-5,2.1-5.2,4.7c-0.2,2.6,1.5,4.9,4.1,5.5c2.5,0.6,5.1-0.9,6-3.5c0.5-1.4,1.2-2.4,2.6-2.9
	c0.8-0.3,1.7-0.3,2.4-0.1c0.7,0.2,1.2,0.6,1.4,0.9c0,0,0.7,0.6,1.1,1.5c0.7,1.5-0.3,4.4-1.8,6.5c-3,4.3-7.8,5.4-8.2,5.4
	c-1.1,0.2-5.1,0.9-9.2-1.5c-0.6-0.3-4.1-2.5-5.7-6.9C0.6,19.9,0.1,18.6,0,16.9z M24.9,13.5L24.9,13.5 M18.2,4.2L18.2,4.2 M22.6,6.5
	c-0.8,0.2-2.3,0.5-3.3,1.6c-0.6,0.7-0.9,1.4-1.8,2.3c-0.6,0.6-1.2,1-1.7,1.2c-0.1,0-0.1,0.1-0.2,0.1c-0.6,0.3-1.2,0.5-2.1,0.6
	c-2.1,0.2-3.5,1.4-3.7,3.2c-0.2,1.8,1,3.3,2.8,3.7c1.7,0.4,3.4-0.6,4-2.4c0.7-2,1.9-3.3,3.6-4c0.7-0.2,1.3-0.3,2-0.3
	c0.3,0,0.6,0,0.7,0c0.5,0.1,1.2,0.2,2.1,0.7c2.6,1.3,3.1,3.3,4.4,3.2c1.2-0.1,2.6-1.8,2.7-3.5C32.2,9.5,26.6,5.7,22.6,6.5z
	 M16.1,16.7c-0.3,0.9-1,1.6-2,1.9s-2.2,0.1-3-0.7c-0.3-0.3-0.6-0.7-0.7-1.1c0-0.1-0.1-0.2-0.1-0.3c0-0.1,0-0.3,0-0.3
	c0-0.1,0.1-0.1,0.1-0.1c0.1,0,0.1,0.2,0.2,0.3c0.2,0.5,0.8,0.6,1,0.7c0.2,0.1,0.4,0.1,0.5,0.1c0.2,0,0.3,0,0.5,0c0.2,0,0.3,0,0.5,0
	c0.3,0,1.2-0.3,1.4-0.3c0,0,0.2-0.1,0.3-0.1c0.2,0,0.2-0.1,0.3-0.1c0,0,0.1,0,0.1,0c0.2-0.1,0.4-0.1,0.7-0.1c0.1,0,0.2,0,0.2,0.1
	C16.1,16.6,16.1,16.6,16.1,16.7z M29.8,15.8C29.6,15.9,29.4,16,29,16c-0.2,0-0.4-0.1-0.5-0.2c-0.5-0.3-0.9-0.8-0.8-0.9h0.2
	c0.3,0,0.5,0.2,0.6,0.2c0.1,0.1,0.3,0.1,0.5,0.2c0.1,0,0.2,0,0.2,0c0.7-0.1,1.2-0.4,1.3-0.3C30.7,15,30.3,15.5,29.8,15.8z
	 M31.3,14.1c-0.1,0.2-0.4,0.4-0.5,0.3c-0.2-0.1-0.1-1,0.2-1.1c0.1,0,0.3,0.1,0.3,0.2C31.5,13.8,31.4,14.1,31.3,14.1z"/>
</svg>
