<?xml version="1.0" encoding="UTF-8"?><svg id="b" xmlns="http://www.w3.org/2000/svg" width="32.01" height="32" xmlns:xlink="http://www.w3.org/1999/xlink" viewBox="0 0 32.01 32"><defs><linearGradient id="c" x1="31.16" y1="4.84" x2="1.39" y2="29.81" gradientTransform="translate(0 34) scale(1 -1)" gradientUnits="userSpaceOnUse"><stop offset="0" stop-color="#3dd976"/><stop offset=".9" stop-color="#b8d660"/></linearGradient></defs><path d="M0,16.98C0,8.98,5.7,3.08,12.7,2.88c2.4-.1,4.2,1.5,4.3,3.7.1,2.3-1.4,4-3.9,4.2-2.9.2-5,2.1-5.2,4.7s1.5,4.9,4.1,5.5c2.5.6,5.1-.9,6-3.5.5-1.4,1.2-2.4,2.6-2.9s2.8-.3,3.9.8c1.2,1.1,1.6,2.4,1.2,4-2,8.3-11.9,12.4-19.3,7.9C2.2,24.78.1,20.98,0,16.98ZM24.9,13.58h0M18.1,4.18h0M22.7,6.58c-.8.2-1.6.5-2.2.8-1,.6-2.8,2.8-3.1,3.2-1,1.1-2.4,1.7-4,1.9-2.1.2-3.5,1.4-3.7,3.2s1,3.3,2.8,3.7c1.7.4,3.4-.6,4-2.4.7-2,1.9-3.3,3.6-4,.9-.3,1.8-.4,2.7-.3h0c.6.1,1.3.3,1.8.6.1,0,.2.1.3.1,2.6,1.3,3.1,3.3,4.4,3.2,1.4-.1,2.7-1.9,2.7-3.5.2-3.2-4.8-7.3-9.3-6.5ZM16,16.78c-.3.9-1,1.6-2,1.9s-2.2.1-3-.7c-.3-.3-.6-.7-.7-1.1-.1-.2-.1-.5-.1-.7,0-.1.2-.2.2-.1s.1.2.2.3c.4.5.8.8,1.4.8.3.1.7,0,1,0,.5-.1.9-.2,1.4-.3.2-.1.5-.1.7-.2.2,0,.5-.1.7-.1.1,0,.2.1.2.2ZM29.8,15.88c-.2.1-.4.2-.8.2-.2,0-.4-.1-.5-.2-.5-.3-.9-.8-.8-.9h.2c.3,0,.5.2.6.2h0c.3.2.7.2.7.2.7-.1,1.2-.4,1.3-.3.2,0-.2.5-.7.8ZM31.3,14.18c-.1.2-.4.4-.5.3-.2-.1-.1-1,.2-1.1.1,0,.3.1.3.2.2.3.1.6,0,.6Z" style="fill:url(#c); stroke-width:0px;"/><rect x="0" width="32" height="32" style="fill:none; stroke-width:0px;"/></svg>