<?xml version="1.0" encoding="UTF-8"?><svg id="a" xmlns="http://www.w3.org/2000/svg" width="18" height="18" viewBox="0 0 18 18"><g id="b"><path d="M14.22,18H3.78c-1.11,0-1.73,0-2.3-.29-.51-.26-.92-.67-1.18-1.18-.29-.58-.29-1.19-.29-2.3V3.78c0-1.11,0-1.73.29-2.31C.55.96.96.56,1.47.29c.58-.29,1.19-.29,2.31-.29h7.99c.51,0,.82,0,1.15.08.29.08.57.2.82.37.28.19.48.41.82.78l2.48,2.75c.29.32.46.51.61.77.13.23.23.48.28.74.07.29.07.56.07,1v7.73c0,1.11,0,1.73-.29,2.3-.26.5-.68.92-1.18,1.18-.58.29-1.19.29-2.3.29ZM5.4,16.2h7.2v-2.52c0-.78,0-1.29-.1-1.49-.08-.17-.22-.31-.39-.39-.19-.1-.71-.1-1.49-.1h-3.24c-.78,0-1.3,0-1.49.1-.17.09-.31.22-.39.39-.1.19-.1.71-.1,1.49v2.52ZM3.78,1.8c-.78,0-1.3,0-1.49.1-.17.09-.31.22-.39.39-.1.19-.1.71-.1,1.49v10.44c0,.78,0,1.29.1,1.49.09.17.22.31.39.39.18.09.63.1,1.31.1v-2.52c0-1.11,0-1.73.29-2.31.26-.51.67-.92,1.18-1.18.58-.29,1.19-.29,2.31-.29h3.24c1.11,0,1.73,0,2.31.3.5.26.92.68,1.18,1.18.29.58.29,1.19.29,2.3v2.52c.68,0,1.13,0,1.31-.1.17-.09.31-.23.39-.39.1-.19.1-.71.1-1.49v-7.73c0-.32,0-.51-.02-.6-.02-.09-.05-.17-.09-.25-.04-.08-.16-.21-.38-.45l-2.48-2.76c-.24-.27-.39-.43-.48-.49-.08-.06-.18-.1-.27-.12-.11-.03-.33-.03-.7-.03H3.78ZM11.7,5.4h-5.4c-.5,0-.9-.4-.9-.9s.4-.9.9-.9h5.4c.5,0,.9.4.9.9s-.4.9-.9.9Z" style="fill:#000; stroke-width:0px;"/></g></svg>