<?xml version="1.0" encoding="us-ascii" standalone="no"?><svg xmlns="http://www.w3.org/2000/svg" xmlns:xlink="http://www.w3.org/1999/xlink" contentStyleType="text/css" height="654px" preserveAspectRatio="none" style="width:604px;height:654px;background:#1B1B1B;" version="1.1" viewBox="0 0 604 654" width="604px" zoomAndPan="magnify"><defs/><g><rect fill="#1B1B1B" height="654" style="stroke:none;stroke-width:1.0;" width="604" x="0" y="0"/><!--class Event--><g id="elem_Event"><rect codeLine="1" fill="#313139" height="178.375" id="Event" rx="2.5" ry="2.5" style="stroke:#E7E7E7;stroke-width:0.5;" width="183" x="225" y="7"/><ellipse cx="291.25" cy="23" fill="#2E5233" rx="11" ry="11" style="stroke:#E7E7E7;stroke-width:1.0;"/><path d="M293.5938,18.6719 C292.6563,18.2344 292.0625,18.0938 291.1875,18.0938 C288.5625,18.0938 286.5625,20.1719 286.5625,22.8906 L286.5625,24.0156 C286.5625,26.5938 288.6719,28.4844 291.5625,28.4844 C292.7813,28.4844 293.9375,28.1875 294.6875,27.6406 C295.2656,27.2344 295.5938,26.7813 295.5938,26.3906 C295.5938,25.9375 295.2031,25.5469 294.7344,25.5469 C294.5156,25.5469 294.3125,25.625 294.125,25.8125 C293.6719,26.2969 293.6719,26.2969 293.4844,26.3906 C293.0625,26.6563 292.375,26.7813 291.6094,26.7813 C289.5625,26.7813 288.2656,25.6875 288.2656,23.9844 L288.2656,22.8906 C288.2656,21.1094 289.5156,19.7969 291.25,19.7969 C291.8281,19.7969 292.4375,19.9531 292.9063,20.2031 C293.3906,20.4844 293.5625,20.7031 293.6563,21.1094 C293.7188,21.5156 293.75,21.6406 293.8906,21.7656 C294.0313,21.9063 294.2656,22.0156 294.4844,22.0156 C294.75,22.0156 295.0156,21.875 295.1875,21.6563 C295.2969,21.5 295.3281,21.3125 295.3281,20.8906 L295.3281,19.4688 C295.3281,19.0313 295.3125,18.9063 295.2188,18.75 C295.0625,18.4844 294.7813,18.3438 294.4844,18.3438 C294.1875,18.3438 293.9844,18.4375 293.7656,18.75 L293.5938,18.6719 Z " fill="#FFFFFF"/><text fill="#FFFFFF" font-family="sans-serif" font-size="14" lengthAdjust="spacing" textLength="42" x="311.75" y="27.8467">Event</text><line style="stroke:#E7E7E7;stroke-width:0.5;" x1="226" x2="407" y1="39" y2="39"/><rect fill="none" height="6" style="stroke:#C82930;stroke-width:1.0;" width="6" x="233" y="49.6484"/><text fill="#FFFFFF" font-family="sans-serif" font-size="14" lengthAdjust="spacing" textLength="42" x="245" y="55.9951">id: Int</text><rect fill="none" height="6" style="stroke:#C82930;stroke-width:1.0;" width="6" x="233" y="65.9453"/><text fill="#FFFFFF" font-family="sans-serif" font-size="14" lengthAdjust="spacing" textLength="93" x="245" y="72.292">name: String</text><rect fill="none" height="6" style="stroke:#C82930;stroke-width:1.0;" width="6" x="233" y="82.2422"/><text fill="#FFFFFF" font-family="sans-serif" font-size="14" lengthAdjust="spacing" textLength="120" x="245" y="88.5889">date: DateTime?</text><rect fill="none" height="6" style="stroke:#C82930;stroke-width:1.0;" width="6" x="233" y="98.5391"/><text fill="#FFFFFF" font-family="sans-serif" font-size="14" lengthAdjust="spacing" textLength="146" x="245" y="104.8857">editorRoles: String[]</text><rect fill="none" height="6" style="stroke:#C82930;stroke-width:1.0;" width="6" x="233" y="114.8359"/><text fill="#FFFFFF" font-family="sans-serif" font-size="14" lengthAdjust="spacing" textLength="99" x="245" y="121.1826">nodes: Node[]</text><rect fill="none" height="6" style="stroke:#C82930;stroke-width:1.0;" width="6" x="233" y="131.1328"/><text fill="#FFFFFF" font-family="sans-serif" font-size="14" lengthAdjust="spacing" textLength="98" x="245" y="137.4795">edges: Edge[]</text><rect fill="none" height="6" style="stroke:#C82930;stroke-width:1.0;" width="6" x="233" y="147.4297"/><text fill="#FFFFFF" font-family="sans-serif" font-size="14" lengthAdjust="spacing" textLength="153" x="245" y="153.7764">createdAt: DateTime</text><rect fill="none" height="6" style="stroke:#C82930;stroke-width:1.0;" width="6" x="233" y="163.7266"/><text fill="#FFFFFF" font-family="sans-serif" font-size="14" lengthAdjust="spacing" textLength="157" x="245" y="170.0732">updatedAt: DateTime</text><line style="stroke:#E7E7E7;stroke-width:0.5;" x1="226" x2="407" y1="177.375" y2="177.375"/></g><!--class Node--><g id="elem_Node"><rect codeLine="12" fill="#313139" height="178.375" id="Node" rx="2.5" ry="2.5" style="stroke:#E7E7E7;stroke-width:0.5;" width="183" x="7" y="303"/><ellipse cx="75.75" cy="319" fill="#2E5233" rx="11" ry="11" style="stroke:#E7E7E7;stroke-width:1.0;"/><path d="M78.0938,314.6719 C77.1563,314.2344 76.5625,314.0938 75.6875,314.0938 C73.0625,314.0938 71.0625,316.1719 71.0625,318.8906 L71.0625,320.0156 C71.0625,322.5938 73.1719,324.4844 76.0625,324.4844 C77.2813,324.4844 78.4375,324.1875 79.1875,323.6406 C79.7656,323.2344 80.0938,322.7813 80.0938,322.3906 C80.0938,321.9375 79.7031,321.5469 79.2344,321.5469 C79.0156,321.5469 78.8125,321.625 78.625,321.8125 C78.1719,322.2969 78.1719,322.2969 77.9844,322.3906 C77.5625,322.6563 76.875,322.7813 76.1094,322.7813 C74.0625,322.7813 72.7656,321.6875 72.7656,319.9844 L72.7656,318.8906 C72.7656,317.1094 74.0156,315.7969 75.75,315.7969 C76.3281,315.7969 76.9375,315.9531 77.4063,316.2031 C77.8906,316.4844 78.0625,316.7031 78.1563,317.1094 C78.2188,317.5156 78.25,317.6406 78.3906,317.7656 C78.5313,317.9063 78.7656,318.0156 78.9844,318.0156 C79.25,318.0156 79.5156,317.875 79.6875,317.6563 C79.7969,317.5 79.8281,317.3125 79.8281,316.8906 L79.8281,315.4688 C79.8281,315.0313 79.8125,314.9063 79.7188,314.75 C79.5625,314.4844 79.2813,314.3438 78.9844,314.3438 C78.6875,314.3438 78.4844,314.4375 78.2656,314.75 L78.0938,314.6719 Z " fill="#FFFFFF"/><text fill="#FFFFFF" font-family="sans-serif" font-size="14" lengthAdjust="spacing" textLength="37" x="96.25" y="323.8467">Node</text><line style="stroke:#E7E7E7;stroke-width:0.5;" x1="8" x2="189" y1="335" y2="335"/><rect fill="none" height="6" style="stroke:#C82930;stroke-width:1.0;" width="6" x="15" y="345.6484"/><text fill="#FFFFFF" font-family="sans-serif" font-size="14" lengthAdjust="spacing" textLength="66" x="27" y="351.9951">id: String</text><rect fill="none" height="6" style="stroke:#C82930;stroke-width:1.0;" width="6" x="15" y="361.9453"/><text fill="#FFFFFF" font-family="sans-serif" font-size="14" lengthAdjust="spacing" textLength="97" x="27" y="368.292">position: Json</text><rect fill="none" height="6" style="stroke:#C82930;stroke-width:1.0;" width="6" x="15" y="378.2422"/><text fill="#FFFFFF" font-family="sans-serif" font-size="14" lengthAdjust="spacing" textLength="70" x="27" y="384.5889">data: Json</text><rect fill="none" height="6" style="stroke:#C82930;stroke-width:1.0;" width="6" x="15" y="394.5391"/><text fill="#FFFFFF" font-family="sans-serif" font-size="14" lengthAdjust="spacing" textLength="94" x="27" y="400.8857">type: String?</text><rect fill="none" height="6" style="stroke:#C82930;stroke-width:1.0;" width="6" x="15" y="410.8359"/><text fill="#FFFFFF" font-family="sans-serif" font-size="14" lengthAdjust="spacing" textLength="103" x="27" y="417.1826">userId: String?</text><rect fill="none" height="6" style="stroke:#C82930;stroke-width:1.0;" width="6" x="15" y="427.1328"/><text fill="#FFFFFF" font-family="sans-serif" font-size="14" lengthAdjust="spacing" textLength="93" x="27" y="433.4795">event: Event</text><rect fill="none" height="6" style="stroke:#C82930;stroke-width:1.0;" width="6" x="15" y="443.4297"/><text fill="#FFFFFF" font-family="sans-serif" font-size="14" lengthAdjust="spacing" textLength="153" x="27" y="449.7764">createdAt: DateTime</text><rect fill="none" height="6" style="stroke:#C82930;stroke-width:1.0;" width="6" x="15" y="459.7266"/><text fill="#FFFFFF" font-family="sans-serif" font-size="14" lengthAdjust="spacing" textLength="157" x="27" y="466.0732">updatedAt: DateTime</text><line style="stroke:#E7E7E7;stroke-width:0.5;" x1="8" x2="189" y1="473.375" y2="473.375"/></g><!--class Edge--><g id="elem_Edge"><rect codeLine="23" fill="#313139" height="259.8594" id="Edge" rx="2.5" ry="2.5" style="stroke:#E7E7E7;stroke-width:0.5;" width="183" x="225" y="262"/><ellipse cx="294.25" cy="278" fill="#2E5233" rx="11" ry="11" style="stroke:#E7E7E7;stroke-width:1.0;"/><path d="M296.5938,273.6719 C295.6563,273.2344 295.0625,273.0938 294.1875,273.0938 C291.5625,273.0938 289.5625,275.1719 289.5625,277.8906 L289.5625,279.0156 C289.5625,281.5938 291.6719,283.4844 294.5625,283.4844 C295.7813,283.4844 296.9375,283.1875 297.6875,282.6406 C298.2656,282.2344 298.5938,281.7813 298.5938,281.3906 C298.5938,280.9375 298.2031,280.5469 297.7344,280.5469 C297.5156,280.5469 297.3125,280.625 297.125,280.8125 C296.6719,281.2969 296.6719,281.2969 296.4844,281.3906 C296.0625,281.6563 295.375,281.7813 294.6094,281.7813 C292.5625,281.7813 291.2656,280.6875 291.2656,278.9844 L291.2656,277.8906 C291.2656,276.1094 292.5156,274.7969 294.25,274.7969 C294.8281,274.7969 295.4375,274.9531 295.9063,275.2031 C296.3906,275.4844 296.5625,275.7031 296.6563,276.1094 C296.7188,276.5156 296.75,276.6406 296.8906,276.7656 C297.0313,276.9063 297.2656,277.0156 297.4844,277.0156 C297.75,277.0156 298.0156,276.875 298.1875,276.6563 C298.2969,276.5 298.3281,276.3125 298.3281,275.8906 L298.3281,274.4688 C298.3281,274.0313 298.3125,273.9063 298.2188,273.75 C298.0625,273.4844 297.7813,273.3438 297.4844,273.3438 C297.1875,273.3438 296.9844,273.4375 296.7656,273.75 L296.5938,273.6719 Z " fill="#FFFFFF"/><text fill="#FFFFFF" font-family="sans-serif" font-size="14" lengthAdjust="spacing" textLength="36" x="314.75" y="282.8467">Edge</text><line style="stroke:#E7E7E7;stroke-width:0.5;" x1="226" x2="407" y1="294" y2="294"/><rect fill="none" height="6" style="stroke:#C82930;stroke-width:1.0;" width="6" x="233" y="304.6484"/><text fill="#FFFFFF" font-family="sans-serif" font-size="14" lengthAdjust="spacing" textLength="66" x="245" y="310.9951">id: String</text><rect fill="none" height="6" style="stroke:#C82930;stroke-width:1.0;" width="6" x="233" y="320.9453"/><text fill="#FFFFFF" font-family="sans-serif" font-size="14" lengthAdjust="spacing" textLength="100" x="245" y="327.292">source: String</text><rect fill="none" height="6" style="stroke:#C82930;stroke-width:1.0;" width="6" x="233" y="337.2422"/><text fill="#FFFFFF" font-family="sans-serif" font-size="14" lengthAdjust="spacing" textLength="99" x="245" y="343.5889">target: String</text><rect fill="none" height="6" style="stroke:#C82930;stroke-width:1.0;" width="6" x="233" y="353.5391"/><text fill="#FFFFFF" font-family="sans-serif" font-size="14" lengthAdjust="spacing" textLength="95" x="245" y="359.8857">label: String?</text><rect fill="none" height="6" style="stroke:#C82930;stroke-width:1.0;" width="6" x="233" y="369.8359"/><text fill="#FFFFFF" font-family="sans-serif" font-size="14" lengthAdjust="spacing" textLength="135" x="245" y="376.1826">animated: Boolean</text><rect fill="none" height="6" style="stroke:#C82930;stroke-width:1.0;" width="6" x="233" y="386.1328"/><text fill="#FFFFFF" font-family="sans-serif" font-size="14" lengthAdjust="spacing" textLength="80" x="245" y="392.4795">style: Json?</text><rect fill="none" height="6" style="stroke:#C82930;stroke-width:1.0;" width="6" x="233" y="402.4297"/><text fill="#FFFFFF" font-family="sans-serif" font-size="14" lengthAdjust="spacing" textLength="87" x="245" y="408.7764">type: String</text><rect fill="none" height="6" style="stroke:#C82930;stroke-width:1.0;" width="6" x="233" y="418.7266"/><text fill="#FFFFFF" font-family="sans-serif" font-size="14" lengthAdjust="spacing" textLength="107" x="245" y="425.0732">stroke: String?</text><rect fill="none" height="6" style="stroke:#C82930;stroke-width:1.0;" width="6" x="233" y="435.0234"/><text fill="#FFFFFF" font-family="sans-serif" font-size="14" lengthAdjust="spacing" textLength="117" x="245" y="441.3701">markerEnd: Json</text><rect fill="none" height="6" style="stroke:#C82930;stroke-width:1.0;" width="6" x="233" y="451.3203"/><text fill="#FFFFFF" font-family="sans-serif" font-size="14" lengthAdjust="spacing" textLength="62" x="245" y="457.667">due: Int?</text><rect fill="none" height="6" style="stroke:#C82930;stroke-width:1.0;" width="6" x="233" y="467.6172"/><text fill="#FFFFFF" font-family="sans-serif" font-size="14" lengthAdjust="spacing" textLength="93" x="245" y="473.9639">event: Event</text><rect fill="none" height="6" style="stroke:#C82930;stroke-width:1.0;" width="6" x="233" y="483.9141"/><text fill="#FFFFFF" font-family="sans-serif" font-size="14" lengthAdjust="spacing" textLength="153" x="245" y="490.2607">createdAt: DateTime</text><rect fill="none" height="6" style="stroke:#C82930;stroke-width:1.0;" width="6" x="233" y="500.2109"/><text fill="#FFFFFF" font-family="sans-serif" font-size="14" lengthAdjust="spacing" textLength="157" x="245" y="506.5576">updatedAt: DateTime</text><line style="stroke:#E7E7E7;stroke-width:0.5;" x1="226" x2="407" y1="513.8594" y2="513.8594"/></g><!--class User--><g id="elem_User"><rect codeLine="39" fill="#313139" height="113.1875" id="User" rx="2.5" ry="2.5" style="stroke:#E7E7E7;stroke-width:0.5;" width="149" x="443" y="335.5"/><ellipse cx="497.75" cy="351.5" fill="#2E5233" rx="11" ry="11" style="stroke:#E7E7E7;stroke-width:1.0;"/><path d="M500.0938,347.1719 C499.1563,346.7344 498.5625,346.5938 497.6875,346.5938 C495.0625,346.5938 493.0625,348.6719 493.0625,351.3906 L493.0625,352.5156 C493.0625,355.0938 495.1719,356.9844 498.0625,356.9844 C499.2813,356.9844 500.4375,356.6875 501.1875,356.1406 C501.7656,355.7344 502.0938,355.2813 502.0938,354.8906 C502.0938,354.4375 501.7031,354.0469 501.2344,354.0469 C501.0156,354.0469 500.8125,354.125 500.625,354.3125 C500.1719,354.7969 500.1719,354.7969 499.9844,354.8906 C499.5625,355.1563 498.875,355.2813 498.1094,355.2813 C496.0625,355.2813 494.7656,354.1875 494.7656,352.4844 L494.7656,351.3906 C494.7656,349.6094 496.0156,348.2969 497.75,348.2969 C498.3281,348.2969 498.9375,348.4531 499.4063,348.7031 C499.8906,348.9844 500.0625,349.2031 500.1563,349.6094 C500.2188,350.0156 500.25,350.1406 500.3906,350.2656 C500.5313,350.4063 500.7656,350.5156 500.9844,350.5156 C501.25,350.5156 501.5156,350.375 501.6875,350.1563 C501.7969,350 501.8281,349.8125 501.8281,349.3906 L501.8281,347.9688 C501.8281,347.5313 501.8125,347.4063 501.7188,347.25 C501.5625,346.9844 501.2813,346.8438 500.9844,346.8438 C500.6875,346.8438 500.4844,346.9375 500.2656,347.25 L500.0938,347.1719 Z " fill="#FFFFFF"/><text fill="#FFFFFF" font-family="sans-serif" font-size="14" lengthAdjust="spacing" textLength="31" x="518.25" y="356.3467">User</text><line style="stroke:#E7E7E7;stroke-width:0.5;" x1="444" x2="591" y1="367.5" y2="367.5"/><rect fill="none" height="6" style="stroke:#C82930;stroke-width:1.0;" width="6" x="451" y="378.1484"/><text fill="#FFFFFF" font-family="sans-serif" font-size="14" lengthAdjust="spacing" textLength="66" x="463" y="384.4951">id: String</text><rect fill="none" height="6" style="stroke:#C82930;stroke-width:1.0;" width="6" x="451" y="394.4453"/><text fill="#FFFFFF" font-family="sans-serif" font-size="14" lengthAdjust="spacing" textLength="123" x="463" y="400.792">username: String</text><rect fill="none" height="6" style="stroke:#C82930;stroke-width:1.0;" width="6" x="451" y="410.7422"/><text fill="#FFFFFF" font-family="sans-serif" font-size="14" lengthAdjust="spacing" textLength="92" x="463" y="417.0889">email: String</text><rect fill="none" height="6" style="stroke:#C82930;stroke-width:1.0;" width="6" x="451" y="427.0391"/><text fill="#FFFFFF" font-family="sans-serif" font-size="14" lengthAdjust="spacing" textLength="81" x="463" y="433.3857">role: String</text><line style="stroke:#E7E7E7;stroke-width:0.5;" x1="444" x2="591" y1="440.6875" y2="440.6875"/></g><!--class Clerk--><g id="elem_Clerk"><rect fill="#313139" height="48" id="Clerk" rx="2.5" ry="2.5" style="stroke:#E7E7E7;stroke-width:0.5;" width="70" x="482.5" y="599"/><ellipse cx="497.5" cy="615" fill="#2E5233" rx="11" ry="11" style="stroke:#E7E7E7;stroke-width:1.0;"/><path d="M499.8438,610.6719 C498.9063,610.2344 498.3125,610.0938 497.4375,610.0938 C494.8125,610.0938 492.8125,612.1719 492.8125,614.8906 L492.8125,616.0156 C492.8125,618.5938 494.9219,620.4844 497.8125,620.4844 C499.0313,620.4844 500.1875,620.1875 500.9375,619.6406 C501.5156,619.2344 501.8438,618.7813 501.8438,618.3906 C501.8438,617.9375 501.4531,617.5469 500.9844,617.5469 C500.7656,617.5469 500.5625,617.625 500.375,617.8125 C499.9219,618.2969 499.9219,618.2969 499.7344,618.3906 C499.3125,618.6563 498.625,618.7813 497.8594,618.7813 C495.8125,618.7813 494.5156,617.6875 494.5156,615.9844 L494.5156,614.8906 C494.5156,613.1094 495.7656,611.7969 497.5,611.7969 C498.0781,611.7969 498.6875,611.9531 499.1563,612.2031 C499.6406,612.4844 499.8125,612.7031 499.9063,613.1094 C499.9688,613.5156 500,613.6406 500.1406,613.7656 C500.2813,613.9063 500.5156,614.0156 500.7344,614.0156 C501,614.0156 501.2656,613.875 501.4375,613.6563 C501.5469,613.5 501.5781,613.3125 501.5781,612.8906 L501.5781,611.4688 C501.5781,611.0313 501.5625,610.9063 501.4688,610.75 C501.3125,610.4844 501.0313,610.3438 500.7344,610.3438 C500.4375,610.3438 500.2344,610.4375 500.0156,610.75 L499.8438,610.6719 Z " fill="#FFFFFF"/><text fill="#FFFFFF" font-family="sans-serif" font-size="14" lengthAdjust="spacing" textLength="38" x="511.5" y="619.8467">Clerk</text><line style="stroke:#E7E7E7;stroke-width:0.5;" x1="483.5" x2="551.5" y1="631" y2="631"/><line style="stroke:#E7E7E7;stroke-width:0.5;" x1="483.5" x2="551.5" y1="639" y2="639"/></g><!--reverse link Event to Node--><g id="link_Event_Node"><path codeLine="46" d="M243.9454,194.8491 C216.3534,232.0591 191.448,265.649 163.861,302.853 " fill="none" id="Event-backto-Node" style="stroke:#E7E7E7;stroke-width:1.0;"/><polygon fill="#E7E7E7" points="251.093,185.21,244.3062,187.647,243.9454,194.8491,250.7322,192.4121,251.093,185.21" style="stroke:#E7E7E7;stroke-width:1.0;"/><text fill="#FFFFFF" font-family="sans-serif" font-size="13" lengthAdjust="spacing" textLength="8" x="237.1283" y="205.5775">1</text><text fill="#FFFFFF" font-family="sans-serif" font-size="13" lengthAdjust="spacing" textLength="23" x="145.3214" y="291.9063">0..*</text></g><!--reverse link Event to Edge--><g id="link_Event_Edge"><path codeLine="47" d="M316.5,197.21 C316.5,221.312 316.5,235.939 316.5,261.818 " fill="none" id="Event-backto-Edge" style="stroke:#E7E7E7;stroke-width:1.0;"/><polygon fill="#E7E7E7" points="316.5,185.21,312.5,191.21,316.5,197.21,320.5,191.21,316.5,185.21" style="stroke:#E7E7E7;stroke-width:1.0;"/><text fill="#FFFFFF" font-family="sans-serif" font-size="13" lengthAdjust="spacing" textLength="8" x="308.1563" y="205.5775">1</text><text fill="#FFFFFF" font-family="sans-serif" font-size="13" lengthAdjust="spacing" textLength="23" x="292.8352" y="250.9331">0..*</text></g><!--reverse link Event to User--><g id="link_Event_User"><path codeLine="48" d="M383.5796,195.1162 C416.8826,243.8282 450.463,292.946 479.398,335.269 " fill="none" id="Event-backto-User" style="stroke:#E7E7E7;stroke-width:1.0;"/><polygon fill="#E7E7E7" points="376.807,185.21,376.8912,192.4206,383.5796,195.1162,383.4953,187.9056,376.807,185.21" style="stroke:#E7E7E7;stroke-width:1.0;"/><text fill="#FFFFFF" font-family="sans-serif" font-size="13" lengthAdjust="spacing" textLength="57" x="405.5" y="228.0669">Manages</text><text fill="#FFFFFF" font-family="sans-serif" font-size="13" lengthAdjust="spacing" textLength="8" x="373.6459" y="205.5775">1</text><text fill="#FFFFFF" font-family="sans-serif" font-size="13" lengthAdjust="spacing" textLength="23" x="450.3528" y="324.5044">0..*</text></g><!--link User to Clerk--><g id="link_User_Clerk"><path codeLine="49" d="M517.5,448.727 C517.5,496.785 517.5,563.7955 517.5,598.7276 " fill="none" id="User-Clerk" style="stroke:#E7E7E7;stroke-width:1.0;"/><text fill="#FFFFFF" font-family="sans-serif" font-size="13" lengthAdjust="spacing" textLength="78" x="518.5" y="565.0669">Managed by</text></g><!--SRC=[hP8zRuCm48PtViM9CH9Hktg9-i6GIksGjbFLuO9FoCBOo3QHKDN_Nd-G10fJrGNZvypnlg-lacWjb2TI3huoW084Px1NBhuhR8d1gpD2rH5mT1uy-kURQ6aN6N7Xj3beIVPyzkCpVQvvO2z-6GdnEf3IBoEf3Fbk_CvTsqRUTtp1lxEiYdf3nudSYS1EM-64LWoUh5PdpJZPkg6xU4e6Uajcp-UCGY8i1VDtdS7dkawhUrFDitLeQd8p9F58SYuCbMZ33ndSQnyv9bFM3PAIoTt2vNZ2wEQNyHPDGwPKV9fMJ_7-_pE6Tn_mUWmX-iMGKOj2peZHydh4jqtpcj_ci2aAo6-ssqqUXsAz4gvXlHALCNX6XNumixZrrGT9fhbm3iVX1m00]--></g></svg>